<mxfile host="Electron" modified="2025-01-09T15:35:12.472Z" agent="Mozilla/5.0 (Macintosh; Intel Mac OS X 10_15_7) AppleWebKit/537.36 (KHTML, like Gecko) draw.io/21.2.1 Chrome/112.0.5615.87 Electron/24.1.2 Safari/537.36" etag="V20fTvbmRxrpXj_K67f6" version="21.2.1" type="device">
  <diagram name="Page-1" id="eoHFoJQbqqkSnLUJk-sT">
    <mxGraphModel dx="1194" dy="621" grid="1" gridSize="10" guides="1" tooltips="1" connect="1" arrows="1" fold="1" page="1" pageScale="1" pageWidth="827" pageHeight="1169" math="0" shadow="0">
      <root>
        <mxCell id="0" />
        <mxCell id="1" parent="0" />
        <mxCell id="Wks_n7H0P1M0t23U8N3x-62" value="LOOP" style="shape=umlFrame;whiteSpace=wrap;html=1;pointerEvents=0;swimlaneFillColor=#DAE8FC;fillColor=#dae8fc;strokeColor=#6c8ebf;width=40;height=20;fontSize=10;fontStyle=1;opacity=80;movable=1;resizable=1;rotatable=1;deletable=1;editable=1;locked=0;connectable=1;" parent="1" vertex="1">
          <mxGeometry x="130" y="90" width="580" height="560" as="geometry" />
        </mxCell>
        <mxCell id="Wks_n7H0P1M0t23U8N3x-61" value="LOOP" style="shape=umlFrame;whiteSpace=wrap;html=1;pointerEvents=0;swimlaneFillColor=#DAE8FC;fillColor=#dae8fc;strokeColor=#6c8ebf;width=40;height=20;fontSize=10;fontStyle=1;opacity=80;movable=1;resizable=1;rotatable=1;deletable=1;editable=1;locked=0;connectable=1;" parent="1" vertex="1">
          <mxGeometry x="120" y="670" width="610" height="860" as="geometry" />
        </mxCell>
        <mxCell id="Wks_n7H0P1M0t23U8N3x-64" value="OPT" style="shape=umlFrame;whiteSpace=wrap;html=1;pointerEvents=0;swimlaneFillColor=#DBF2C2;fillColor=#DBF2C2;strokeColor=#6c8ebf;width=50;height=20;fontSize=10;fontStyle=1;opacity=60;movable=1;resizable=1;rotatable=1;deletable=1;editable=1;locked=0;connectable=1;" parent="1" vertex="1">
          <mxGeometry x="100" y="420" width="640" height="1120" as="geometry" />
        </mxCell>
        <mxCell id="Wks_n7H0P1M0t23U8N3x-27" value="OPT" style="shape=umlFrame;whiteSpace=wrap;html=1;pointerEvents=0;swimlaneFillColor=#D5E8D4;fillColor=#d5e8d4;strokeColor=#82b366;width=50;height=20;fontSize=10;fontStyle=1;opacity=60;" parent="1" vertex="1">
          <mxGeometry x="140" y="760" width="570" height="750" as="geometry" />
        </mxCell>
        <mxCell id="Wks_n7H0P1M0t23U8N3x-28" value="ALT" style="shape=umlFrame;whiteSpace=wrap;html=1;pointerEvents=0;swimlaneFillColor=#FFCCFF;fillColor=#e1d5e7;strokeColor=#9673a6;width=50;height=20;fontSize=10;fontStyle=1;opacity=60;" parent="1" vertex="1">
          <mxGeometry x="160" y="790" width="530" height="710" as="geometry" />
        </mxCell>
        <mxCell id="Wks_n7H0P1M0t23U8N3x-30" value="ALT" style="shape=umlFrame;whiteSpace=wrap;html=1;pointerEvents=0;swimlaneFillColor=#eccbc1;fillColor=#f8cecc;strokeColor=#d27874;width=50;height=20;fontSize=10;fontStyle=1;opacity=60;" parent="1" vertex="1">
          <mxGeometry x="180" y="830" width="480" height="160" as="geometry" />
        </mxCell>
        <mxCell id="Wks_n7H0P1M0t23U8N3x-21" value="ALT" style="shape=umlFrame;whiteSpace=wrap;html=1;pointerEvents=0;swimlaneFillColor=#d7bbe2;fillColor=#e1d5e7;strokeColor=#A47DB5;width=50;height=20;fontSize=10;fontStyle=1;opacity=80;movable=1;resizable=1;rotatable=1;deletable=1;editable=1;locked=0;connectable=1;" parent="1" vertex="1">
          <mxGeometry x="150" y="110" width="540" height="280" as="geometry" />
        </mxCell>
        <mxCell id="7QjkbwkYLUTSWp5Ibt6S-46" value="OPT" style="shape=umlFrame;whiteSpace=wrap;html=1;pointerEvents=0;swimlaneFillColor=#DBF2C2;fillColor=#DBF2C2;strokeColor=#82b366;width=50;height=20;fontSize=10;fontStyle=1;opacity=80;" parent="1" vertex="1">
          <mxGeometry x="180" y="570" width="480" height="60" as="geometry" />
        </mxCell>
        <mxCell id="7QjkbwkYLUTSWp5Ibt6S-37" value="OPT" style="shape=umlFrame;whiteSpace=wrap;html=1;pointerEvents=0;swimlaneFillColor=#DBF2C2;fillColor=#DBF2C2;strokeColor=#82b366;width=50;height=20;fontSize=10;fontStyle=1;opacity=80;" parent="1" vertex="1">
          <mxGeometry x="180" y="430" width="480" height="50" as="geometry" />
        </mxCell>
        <mxCell id="7QjkbwkYLUTSWp5Ibt6S-1" value="Chef" style="shape=umlActor;verticalLabelPosition=bottom;verticalAlign=top;html=1;outlineConnect=0;" parent="1" vertex="1">
          <mxGeometry x="230" y="20" width="19.33" height="40" as="geometry" />
        </mxCell>
        <mxCell id="7QjkbwkYLUTSWp5Ibt6S-5" value="" style="endArrow=classic;html=1;rounded=0;" parent="1" edge="1">
          <mxGeometry width="50" height="50" relative="1" as="geometry">
            <mxPoint x="240" y="130" as="sourcePoint" />
            <mxPoint x="600" y="130" as="targetPoint" />
          </mxGeometry>
        </mxCell>
        <mxCell id="7QjkbwkYLUTSWp5Ibt6S-9" value="1. generaFoglioRiepilogativo(servizio, evento)" style="edgeLabel;html=1;align=center;verticalAlign=middle;resizable=0;points=[];labelBackgroundColor=none;" parent="7QjkbwkYLUTSWp5Ibt6S-5" connectable="0" vertex="1">
          <mxGeometry x="-0.2843" y="1" relative="1" as="geometry">
            <mxPoint x="57" y="-9" as="offset" />
          </mxGeometry>
        </mxCell>
        <mxCell id="7QjkbwkYLUTSWp5Ibt6S-6" value="System" style="shape=cube;whiteSpace=wrap;html=1;boundedLbl=1;backgroundOutline=1;darkOpacity=0.05;darkOpacity2=0.1;size=10;" parent="1" vertex="1">
          <mxGeometry x="570" y="30" width="70" height="35" as="geometry" />
        </mxCell>
        <mxCell id="7QjkbwkYLUTSWp5Ibt6S-29" value="" style="endArrow=classic;html=1;rounded=0;" parent="1" edge="1">
          <mxGeometry width="50" height="50" relative="1" as="geometry">
            <mxPoint x="240" y="450" as="sourcePoint" />
            <mxPoint x="600" y="450" as="targetPoint" />
          </mxGeometry>
        </mxCell>
        <mxCell id="7QjkbwkYLUTSWp5Ibt6S-30" value="2. consultaRicettario()" style="edgeLabel;html=1;align=center;verticalAlign=middle;resizable=0;points=[];labelBackgroundColor=none;fontSize=10;" parent="7QjkbwkYLUTSWp5Ibt6S-29" connectable="0" vertex="1">
          <mxGeometry x="-0.2843" y="1" relative="1" as="geometry">
            <mxPoint x="57" y="-9" as="offset" />
          </mxGeometry>
        </mxCell>
        <mxCell id="7QjkbwkYLUTSWp5Ibt6S-31" value="" style="endArrow=classic;html=1;rounded=0;dashed=1;" parent="1" edge="1">
          <mxGeometry width="50" height="50" relative="1" as="geometry">
            <mxPoint x="600" y="470" as="sourcePoint" />
            <mxPoint x="240" y="470" as="targetPoint" />
          </mxGeometry>
        </mxCell>
        <mxCell id="7QjkbwkYLUTSWp5Ibt6S-32" value="Ricette" style="edgeLabel;html=1;align=center;verticalAlign=middle;resizable=0;points=[];labelBackgroundColor=none;fontSize=10;" parent="7QjkbwkYLUTSWp5Ibt6S-31" connectable="0" vertex="1">
          <mxGeometry x="0.0241" y="-1" relative="1" as="geometry">
            <mxPoint y="-9" as="offset" />
          </mxGeometry>
        </mxCell>
        <mxCell id="7QjkbwkYLUTSWp5Ibt6S-42" value="" style="endArrow=classic;html=1;rounded=0;" parent="1" edge="1">
          <mxGeometry width="50" height="50" relative="1" as="geometry">
            <mxPoint x="240" y="590" as="sourcePoint" />
            <mxPoint x="600" y="590" as="targetPoint" />
          </mxGeometry>
        </mxCell>
        <mxCell id="7QjkbwkYLUTSWp5Ibt6S-43" value="4. ordineElenco(ordinamento)" style="edgeLabel;html=1;align=center;verticalAlign=middle;resizable=0;points=[];labelBackgroundColor=none;" parent="7QjkbwkYLUTSWp5Ibt6S-42" connectable="0" vertex="1">
          <mxGeometry x="-0.2843" y="1" relative="1" as="geometry">
            <mxPoint x="57" y="-9" as="offset" />
          </mxGeometry>
        </mxCell>
        <mxCell id="7QjkbwkYLUTSWp5Ibt6S-44" value="" style="endArrow=classic;html=1;rounded=0;dashed=1;" parent="1" edge="1">
          <mxGeometry width="50" height="50" relative="1" as="geometry">
            <mxPoint x="600" y="610" as="sourcePoint" />
            <mxPoint x="240" y="610" as="targetPoint" />
          </mxGeometry>
        </mxCell>
        <mxCell id="7QjkbwkYLUTSWp5Ibt6S-45" value="elenco ordinato" style="edgeLabel;html=1;align=center;verticalAlign=middle;resizable=0;points=[];labelBackgroundColor=none;" parent="7QjkbwkYLUTSWp5Ibt6S-44" connectable="0" vertex="1">
          <mxGeometry x="0.0241" y="-1" relative="1" as="geometry">
            <mxPoint y="-9" as="offset" />
          </mxGeometry>
        </mxCell>
        <mxCell id="Wks_n7H0P1M0t23U8N3x-7" value="" style="endArrow=none;dashed=1;html=1;dashPattern=1 3;strokeWidth=2;rounded=0;" parent="1" edge="1">
          <mxGeometry width="50" height="50" relative="1" as="geometry">
            <mxPoint x="240" y="250" as="sourcePoint" />
            <mxPoint x="600" y="250" as="targetPoint" />
          </mxGeometry>
        </mxCell>
        <mxCell id="Wks_n7H0P1M0t23U8N3x-8" value="" style="endArrow=classic;html=1;rounded=0;" parent="1" edge="1">
          <mxGeometry width="50" height="50" relative="1" as="geometry">
            <mxPoint x="240" y="269" as="sourcePoint" />
            <mxPoint x="600" y="269" as="targetPoint" />
          </mxGeometry>
        </mxCell>
        <mxCell id="Wks_n7H0P1M0t23U8N3x-9" value="1a. apriFoglioRiepilogativo(servzio, evento)" style="edgeLabel;html=1;align=center;verticalAlign=middle;resizable=0;points=[];labelBackgroundColor=none;" parent="Wks_n7H0P1M0t23U8N3x-8" connectable="0" vertex="1">
          <mxGeometry x="-0.2843" y="1" relative="1" as="geometry">
            <mxPoint x="57" y="-9" as="offset" />
          </mxGeometry>
        </mxCell>
        <mxCell id="Wks_n7H0P1M0t23U8N3x-22" value="OPT" style="shape=umlFrame;whiteSpace=wrap;html=1;pointerEvents=0;swimlaneFillColor=#DBF2C2;fillColor=#DBF2C2;strokeColor=#82b366;width=50;height=20;fontSize=10;fontStyle=1;opacity=80;" parent="1" vertex="1">
          <mxGeometry x="180" y="690" width="480" height="60" as="geometry" />
        </mxCell>
        <mxCell id="Wks_n7H0P1M0t23U8N3x-23" value="" style="endArrow=classic;html=1;rounded=0;" parent="1" edge="1">
          <mxGeometry width="50" height="50" relative="1" as="geometry">
            <mxPoint x="240" y="710" as="sourcePoint" />
            <mxPoint x="600" y="710" as="targetPoint" />
          </mxGeometry>
        </mxCell>
        <mxCell id="Wks_n7H0P1M0t23U8N3x-24" value="5. consultaTabelloneTurni()" style="edgeLabel;html=1;align=center;verticalAlign=middle;resizable=0;points=[];labelBackgroundColor=none;" parent="Wks_n7H0P1M0t23U8N3x-23" connectable="0" vertex="1">
          <mxGeometry x="-0.2843" y="1" relative="1" as="geometry">
            <mxPoint x="57" y="-9" as="offset" />
          </mxGeometry>
        </mxCell>
        <mxCell id="Wks_n7H0P1M0t23U8N3x-25" value="" style="endArrow=classic;html=1;rounded=0;dashed=1;" parent="1" edge="1">
          <mxGeometry width="50" height="50" relative="1" as="geometry">
            <mxPoint x="600" y="730" as="sourcePoint" />
            <mxPoint x="240" y="730" as="targetPoint" />
          </mxGeometry>
        </mxCell>
        <mxCell id="Wks_n7H0P1M0t23U8N3x-26" value="tabellone turni" style="edgeLabel;html=1;align=center;verticalAlign=middle;resizable=0;points=[];labelBackgroundColor=none;" parent="Wks_n7H0P1M0t23U8N3x-25" connectable="0" vertex="1">
          <mxGeometry x="0.0241" y="-1" relative="1" as="geometry">
            <mxPoint y="-9" as="offset" />
          </mxGeometry>
        </mxCell>
        <mxCell id="Wks_n7H0P1M0t23U8N3x-33" value="" style="endArrow=classic;html=1;rounded=0;" parent="1" edge="1">
          <mxGeometry width="50" height="50" relative="1" as="geometry">
            <mxPoint x="240" y="810" as="sourcePoint" />
            <mxPoint x="600" y="810" as="targetPoint" />
          </mxGeometry>
        </mxCell>
        <mxCell id="Wks_n7H0P1M0t23U8N3x-34" value="6 assengaCompito(compito, turno?,cuoco?, portzioni?, quantita?, tempo?)" style="edgeLabel;html=1;align=center;verticalAlign=middle;resizable=0;points=[];labelBackgroundColor=none;fontSize=10;" parent="Wks_n7H0P1M0t23U8N3x-33" connectable="0" vertex="1">
          <mxGeometry x="-0.2843" y="1" relative="1" as="geometry">
            <mxPoint x="57" y="-9" as="offset" />
          </mxGeometry>
        </mxCell>
        <mxCell id="Wks_n7H0P1M0t23U8N3x-35" value="" style="endArrow=classic;html=1;rounded=0;dashed=1;fillColor=#f8cecc;strokeColor=#f60c04;" parent="1" edge="1">
          <mxGeometry width="50" height="50" relative="1" as="geometry">
            <mxPoint x="600" y="890" as="sourcePoint" />
            <mxPoint x="240" y="890" as="targetPoint" />
          </mxGeometry>
        </mxCell>
        <mxCell id="Wks_n7H0P1M0t23U8N3x-36" value="(6-6a). 1a.1 cuoco non presente nel turno" style="edgeLabel;html=1;align=center;verticalAlign=middle;resizable=0;points=[];labelBackgroundColor=none;fontColor=#FF0808;" parent="Wks_n7H0P1M0t23U8N3x-35" connectable="0" vertex="1">
          <mxGeometry x="0.0241" y="-1" relative="1" as="geometry">
            <mxPoint y="-9" as="offset" />
          </mxGeometry>
        </mxCell>
        <mxCell id="Wks_n7H0P1M0t23U8N3x-37" value="" style="endArrow=classic;html=1;rounded=0;dashed=1;" parent="1" edge="1">
          <mxGeometry width="50" height="50" relative="1" as="geometry">
            <mxPoint x="600" y="850" as="sourcePoint" />
            <mxPoint x="240" y="850" as="targetPoint" />
          </mxGeometry>
        </mxCell>
        <mxCell id="Wks_n7H0P1M0t23U8N3x-38" value="nuovo compito" style="edgeLabel;html=1;align=center;verticalAlign=middle;resizable=0;points=[];labelBackgroundColor=none;" parent="Wks_n7H0P1M0t23U8N3x-37" connectable="0" vertex="1">
          <mxGeometry x="0.0241" y="-1" relative="1" as="geometry">
            <mxPoint y="-9" as="offset" />
          </mxGeometry>
        </mxCell>
        <mxCell id="Wks_n7H0P1M0t23U8N3x-39" value="" style="endArrow=none;dashed=1;html=1;dashPattern=1 3;strokeWidth=2;rounded=0;exitX=-0.004;exitY=0.377;exitDx=0;exitDy=0;exitPerimeter=0;entryX=0.996;entryY=0.377;entryDx=0;entryDy=0;entryPerimeter=0;fillColor=#f8cecc;strokeColor=#f71f18;" parent="1" edge="1">
          <mxGeometry width="50" height="50" relative="1" as="geometry">
            <mxPoint x="180.00000000000037" y="869.6000000000001" as="sourcePoint" />
            <mxPoint x="660.0000000000003" y="869.6000000000001" as="targetPoint" />
          </mxGeometry>
        </mxCell>
        <mxCell id="Wks_n7H0P1M0t23U8N3x-40" value="" style="endArrow=none;dashed=1;html=1;dashPattern=1 3;strokeWidth=2;rounded=0;exitX=-0.004;exitY=0.377;exitDx=0;exitDy=0;exitPerimeter=0;entryX=0.996;entryY=0.377;entryDx=0;entryDy=0;entryPerimeter=0;fillColor=#f8cecc;strokeColor=#f71f18;" parent="1" edge="1">
          <mxGeometry width="50" height="50" relative="1" as="geometry">
            <mxPoint x="180.00000000000037" y="910.0000000000002" as="sourcePoint" />
            <mxPoint x="660.0000000000003" y="910.0000000000002" as="targetPoint" />
          </mxGeometry>
        </mxCell>
        <mxCell id="Wks_n7H0P1M0t23U8N3x-50" value="" style="group" parent="1" connectable="0" vertex="1">
          <mxGeometry x="180" y="150" width="480.00000000000034" height="81" as="geometry" />
        </mxCell>
        <mxCell id="Wks_n7H0P1M0t23U8N3x-52" value="" style="group" parent="Wks_n7H0P1M0t23U8N3x-50" connectable="0" vertex="1">
          <mxGeometry width="480.00000000000034" height="81" as="geometry" />
        </mxCell>
        <mxCell id="Wks_n7H0P1M0t23U8N3x-1" value="ALT" style="shape=umlFrame;whiteSpace=wrap;html=1;pointerEvents=0;swimlaneFillColor=#eccbc1;fillColor=#f8cecc;strokeColor=#d27874;width=50;height=20;fontSize=10;fontStyle=1;opacity=80;" parent="Wks_n7H0P1M0t23U8N3x-52" vertex="1">
          <mxGeometry width="480" height="80" as="geometry" />
        </mxCell>
        <mxCell id="Wks_n7H0P1M0t23U8N3x-2" value="" style="endArrow=classic;html=1;rounded=0;dashed=1;" parent="Wks_n7H0P1M0t23U8N3x-52" edge="1">
          <mxGeometry width="50" height="50" relative="1" as="geometry">
            <mxPoint x="420" y="20" as="sourcePoint" />
            <mxPoint x="60" y="20" as="targetPoint" />
          </mxGeometry>
        </mxCell>
        <mxCell id="Wks_n7H0P1M0t23U8N3x-3" value="foglio generato" style="edgeLabel;html=1;align=center;verticalAlign=middle;resizable=0;points=[];labelBackgroundColor=none;" parent="Wks_n7H0P1M0t23U8N3x-2" connectable="0" vertex="1">
          <mxGeometry x="0.0241" y="-1" relative="1" as="geometry">
            <mxPoint y="-9" as="offset" />
          </mxGeometry>
        </mxCell>
        <mxCell id="Wks_n7H0P1M0t23U8N3x-4" value="" style="endArrow=none;dashed=1;html=1;dashPattern=1 3;strokeWidth=2;rounded=0;exitX=-0.004;exitY=0.377;exitDx=0;exitDy=0;exitPerimeter=0;entryX=0.996;entryY=0.377;entryDx=0;entryDy=0;entryPerimeter=0;fillColor=#f8cecc;strokeColor=#f71f18;" parent="Wks_n7H0P1M0t23U8N3x-52" edge="1">
          <mxGeometry width="50" height="50" relative="1" as="geometry">
            <mxPoint x="3.694822225952521e-13" y="40.32000000000005" as="sourcePoint" />
            <mxPoint x="480.00000000000034" y="40.32000000000005" as="targetPoint" />
          </mxGeometry>
        </mxCell>
        <mxCell id="Wks_n7H0P1M0t23U8N3x-5" value="" style="endArrow=classic;html=1;rounded=0;dashed=1;fillColor=#f8cecc;strokeColor=#f60c04;" parent="Wks_n7H0P1M0t23U8N3x-52" edge="1">
          <mxGeometry width="50" height="50" relative="1" as="geometry">
            <mxPoint x="420" y="60" as="sourcePoint" />
            <mxPoint x="60" y="60" as="targetPoint" />
          </mxGeometry>
        </mxCell>
        <mxCell id="Wks_n7H0P1M0t23U8N3x-6" value="(1-1a). 1a.1 evento non in carico" style="edgeLabel;html=1;align=center;verticalAlign=middle;resizable=0;points=[];labelBackgroundColor=none;fontColor=#FF0808;" parent="Wks_n7H0P1M0t23U8N3x-5" connectable="0" vertex="1">
          <mxGeometry x="0.0241" y="-1" relative="1" as="geometry">
            <mxPoint y="-8" as="offset" />
          </mxGeometry>
        </mxCell>
        <mxCell id="Wks_n7H0P1M0t23U8N3x-42" value="" style="endArrow=classic;html=1;rounded=0;dashed=1;fillColor=#f8cecc;strokeColor=#f60c04;" parent="1" edge="1">
          <mxGeometry width="50" height="50" relative="1" as="geometry">
            <mxPoint x="600" y="930" as="sourcePoint" />
            <mxPoint x="240" y="930" as="targetPoint" />
          </mxGeometry>
        </mxCell>
        <mxCell id="Wks_n7H0P1M0t23U8N3x-43" value="(6-6a). 1b.1 cuoco già occupato" style="edgeLabel;html=1;align=center;verticalAlign=middle;resizable=0;points=[];labelBackgroundColor=none;fontColor=#FF0808;" parent="Wks_n7H0P1M0t23U8N3x-42" connectable="0" vertex="1">
          <mxGeometry x="0.0241" y="-1" relative="1" as="geometry">
            <mxPoint y="-9" as="offset" />
          </mxGeometry>
        </mxCell>
        <mxCell id="Wks_n7H0P1M0t23U8N3x-44" value="" style="endArrow=none;dashed=1;html=1;dashPattern=1 3;strokeWidth=2;rounded=0;exitX=-0.004;exitY=0.377;exitDx=0;exitDy=0;exitPerimeter=0;entryX=0.996;entryY=0.377;entryDx=0;entryDy=0;entryPerimeter=0;fillColor=#f8cecc;strokeColor=#f71f18;" parent="1" edge="1">
          <mxGeometry width="50" height="50" relative="1" as="geometry">
            <mxPoint x="180.00000000000037" y="950.0000000000002" as="sourcePoint" />
            <mxPoint x="660.0000000000003" y="950.0000000000002" as="targetPoint" />
          </mxGeometry>
        </mxCell>
        <mxCell id="Wks_n7H0P1M0t23U8N3x-45" value="" style="endArrow=classic;html=1;rounded=0;dashed=1;fillColor=#f8cecc;strokeColor=#f60c04;" parent="1" edge="1">
          <mxGeometry width="50" height="50" relative="1" as="geometry">
            <mxPoint x="600" y="970" as="sourcePoint" />
            <mxPoint x="240" y="970" as="targetPoint" />
          </mxGeometry>
        </mxCell>
        <mxCell id="Wks_n7H0P1M0t23U8N3x-46" value="(6-6a). 1c.1 turno già passato" style="edgeLabel;html=1;align=center;verticalAlign=middle;resizable=0;points=[];labelBackgroundColor=none;fontColor=#FF0808;" parent="Wks_n7H0P1M0t23U8N3x-45" connectable="0" vertex="1">
          <mxGeometry x="0.0241" y="-1" relative="1" as="geometry">
            <mxPoint y="-9" as="offset" />
          </mxGeometry>
        </mxCell>
        <mxCell id="Wks_n7H0P1M0t23U8N3x-47" value="" style="endArrow=none;dashed=1;html=1;dashPattern=1 3;strokeWidth=2;rounded=0;" parent="1" edge="1">
          <mxGeometry width="50" height="50" relative="1" as="geometry">
            <mxPoint x="240" y="1230" as="sourcePoint" />
            <mxPoint x="600" y="1230" as="targetPoint" />
          </mxGeometry>
        </mxCell>
        <mxCell id="7QjkbwkYLUTSWp5Ibt6S-7" value="" style="endArrow=none;html=1;rounded=0;dashed=1;dashPattern=12 12;" parent="1" edge="1">
          <mxGeometry width="50" height="50" relative="1" as="geometry">
            <mxPoint x="600" y="220" as="sourcePoint" />
            <mxPoint x="600" y="88" as="targetPoint" />
          </mxGeometry>
        </mxCell>
        <mxCell id="Wks_n7H0P1M0t23U8N3x-53" value="" style="endArrow=classic;html=1;rounded=0;" parent="1" edge="1">
          <mxGeometry width="50" height="50" relative="1" as="geometry">
            <mxPoint x="240" y="1250" as="sourcePoint" />
            <mxPoint x="600" y="1250" as="targetPoint" />
          </mxGeometry>
        </mxCell>
        <mxCell id="Wks_n7H0P1M0t23U8N3x-54" value="6b.1. registraCompitoCompletato(compito)" style="edgeLabel;html=1;align=center;verticalAlign=middle;resizable=0;points=[];labelBackgroundColor=none;fontSize=10;" parent="Wks_n7H0P1M0t23U8N3x-53" connectable="0" vertex="1">
          <mxGeometry x="-0.2843" y="1" relative="1" as="geometry">
            <mxPoint x="57" y="-9" as="offset" />
          </mxGeometry>
        </mxCell>
        <mxCell id="Wks_n7H0P1M0t23U8N3x-55" value="" style="endArrow=classic;html=1;rounded=0;dashed=1;" parent="1" edge="1">
          <mxGeometry width="50" height="50" relative="1" as="geometry">
            <mxPoint x="600" y="1270" as="sourcePoint" />
            <mxPoint x="240" y="1270" as="targetPoint" />
          </mxGeometry>
        </mxCell>
        <mxCell id="Wks_n7H0P1M0t23U8N3x-56" value="registrato" style="edgeLabel;html=1;align=center;verticalAlign=middle;resizable=0;points=[];labelBackgroundColor=none;" parent="Wks_n7H0P1M0t23U8N3x-55" connectable="0" vertex="1">
          <mxGeometry x="0.0241" y="-1" relative="1" as="geometry">
            <mxPoint y="-9" as="offset" />
          </mxGeometry>
        </mxCell>
        <mxCell id="Wks_n7H0P1M0t23U8N3x-57" value="" style="endArrow=classic;html=1;rounded=0;" parent="1" edge="1">
          <mxGeometry width="50" height="50" relative="1" as="geometry">
            <mxPoint x="240" y="1310" as="sourcePoint" />
            <mxPoint x="600" y="1310" as="targetPoint" />
          </mxGeometry>
        </mxCell>
        <mxCell id="Wks_n7H0P1M0t23U8N3x-58" value="6c.1 eliminaAssegnamento(compito,cuoco?,turno?)" style="edgeLabel;html=1;align=center;verticalAlign=middle;resizable=0;points=[];labelBackgroundColor=none;fontSize=10;" parent="Wks_n7H0P1M0t23U8N3x-57" connectable="0" vertex="1">
          <mxGeometry x="-0.2843" y="1" relative="1" as="geometry">
            <mxPoint x="57" y="-9" as="offset" />
          </mxGeometry>
        </mxCell>
        <mxCell id="Wks_n7H0P1M0t23U8N3x-59" value="" style="endArrow=classic;html=1;rounded=0;dashed=1;" parent="1" edge="1">
          <mxGeometry width="50" height="50" relative="1" as="geometry">
            <mxPoint x="600" y="1330" as="sourcePoint" />
            <mxPoint x="240" y="1330" as="targetPoint" />
          </mxGeometry>
        </mxCell>
        <mxCell id="Wks_n7H0P1M0t23U8N3x-60" value="eliminato" style="edgeLabel;html=1;align=center;verticalAlign=middle;resizable=0;points=[];labelBackgroundColor=none;" parent="Wks_n7H0P1M0t23U8N3x-59" connectable="0" vertex="1">
          <mxGeometry x="0.0241" y="-1" relative="1" as="geometry">
            <mxPoint y="-9" as="offset" />
          </mxGeometry>
        </mxCell>
        <mxCell id="Wks_n7H0P1M0t23U8N3x-10" value="ALT" style="shape=umlFrame;whiteSpace=wrap;html=1;pointerEvents=0;swimlaneFillColor=#eccbc1;fillColor=#f8cecc;strokeColor=#d27874;width=50;height=20;fontSize=10;fontStyle=1;opacity=80;" parent="1" vertex="1">
          <mxGeometry x="180" y="290" width="480" height="80" as="geometry" />
        </mxCell>
        <mxCell id="Wks_n7H0P1M0t23U8N3x-11" value="" style="endArrow=classic;html=1;rounded=0;dashed=1;" parent="1" edge="1">
          <mxGeometry width="50" height="50" relative="1" as="geometry">
            <mxPoint x="600" y="310" as="sourcePoint" />
            <mxPoint x="240" y="310" as="targetPoint" />
          </mxGeometry>
        </mxCell>
        <mxCell id="Wks_n7H0P1M0t23U8N3x-12" value="foglio registrato" style="edgeLabel;html=1;align=center;verticalAlign=middle;resizable=0;points=[];labelBackgroundColor=none;" parent="Wks_n7H0P1M0t23U8N3x-11" connectable="0" vertex="1">
          <mxGeometry x="0.0241" y="-1" relative="1" as="geometry">
            <mxPoint y="-9" as="offset" />
          </mxGeometry>
        </mxCell>
        <mxCell id="Wks_n7H0P1M0t23U8N3x-13" value="" style="endArrow=none;dashed=1;html=1;dashPattern=1 3;strokeWidth=2;rounded=0;exitX=-0.004;exitY=0.377;exitDx=0;exitDy=0;exitPerimeter=0;entryX=0.996;entryY=0.377;entryDx=0;entryDy=0;entryPerimeter=0;fillColor=#f8cecc;strokeColor=#f71f18;" parent="1" edge="1">
          <mxGeometry width="50" height="50" relative="1" as="geometry">
            <mxPoint x="180.00000000000037" y="329.64000000000004" as="sourcePoint" />
            <mxPoint x="660.0000000000003" y="329.64000000000004" as="targetPoint" />
          </mxGeometry>
        </mxCell>
        <mxCell id="Wks_n7H0P1M0t23U8N3x-14" value="" style="endArrow=classic;html=1;rounded=0;dashed=1;fillColor=#f8cecc;strokeColor=#f60c04;" parent="1" edge="1">
          <mxGeometry width="50" height="50" relative="1" as="geometry">
            <mxPoint x="590" y="350" as="sourcePoint" />
            <mxPoint x="240" y="350" as="targetPoint" />
          </mxGeometry>
        </mxCell>
        <mxCell id="Wks_n7H0P1M0t23U8N3x-15" value="(1-1a). 1a.1 evento non in carico" style="edgeLabel;html=1;align=center;verticalAlign=middle;resizable=0;points=[];labelBackgroundColor=none;fontColor=#FF0808;" parent="Wks_n7H0P1M0t23U8N3x-14" connectable="0" vertex="1">
          <mxGeometry x="0.0241" y="-1" relative="1" as="geometry">
            <mxPoint y="-9" as="offset" />
          </mxGeometry>
        </mxCell>
        <mxCell id="Wks_n7H0P1M0t23U8N3x-20" value="" style="endArrow=none;html=1;rounded=0;dashed=1;dashPattern=12 12;" parent="1" edge="1">
          <mxGeometry width="50" height="50" relative="1" as="geometry">
            <mxPoint x="600" y="880" as="sourcePoint" />
            <mxPoint x="600" y="360" as="targetPoint" />
          </mxGeometry>
        </mxCell>
        <mxCell id="Wks_n7H0P1M0t23U8N3x-18" value="" style="endArrow=none;html=1;rounded=0;dashed=1;dashPattern=12 12;" parent="1" edge="1">
          <mxGeometry width="50" height="50" relative="1" as="geometry">
            <mxPoint x="600" y="340" as="sourcePoint" />
            <mxPoint x="600.1075268817208" y="240" as="targetPoint" />
          </mxGeometry>
        </mxCell>
        <mxCell id="Wks_n7H0P1M0t23U8N3x-66" value="" style="endArrow=none;html=1;rounded=0;dashed=1;dashPattern=12 12;" parent="1" edge="1">
          <mxGeometry width="50" height="50" relative="1" as="geometry">
            <mxPoint x="600" y="920" as="sourcePoint" />
            <mxPoint x="600" y="900" as="targetPoint" />
          </mxGeometry>
        </mxCell>
        <mxCell id="Wks_n7H0P1M0t23U8N3x-68" value="" style="endArrow=none;html=1;rounded=0;dashed=1;dashPattern=12 12;" parent="1" edge="1">
          <mxGeometry width="50" height="50" relative="1" as="geometry">
            <mxPoint x="600" y="960" as="sourcePoint" />
            <mxPoint x="600" y="940" as="targetPoint" />
          </mxGeometry>
        </mxCell>
        <mxCell id="Wks_n7H0P1M0t23U8N3x-70" value="" style="endArrow=none;html=1;rounded=0;dashed=1;dashPattern=12 12;" parent="1" edge="1">
          <mxGeometry width="50" height="50" relative="1" as="geometry">
            <mxPoint x="600" y="1460" as="sourcePoint" />
            <mxPoint x="600" y="980" as="targetPoint" />
          </mxGeometry>
        </mxCell>
        <mxCell id="Wks_n7H0P1M0t23U8N3x-71" value="ALT" style="shape=umlFrame;whiteSpace=wrap;html=1;pointerEvents=0;swimlaneFillColor=#eccbc1;fillColor=#f8cecc;strokeColor=#d27874;width=50;height=20;fontSize=10;fontStyle=1;opacity=60;" parent="1" vertex="1">
          <mxGeometry x="180" y="1050" width="480" height="160" as="geometry" />
        </mxCell>
        <mxCell id="Wks_n7H0P1M0t23U8N3x-72" value="" style="endArrow=classic;html=1;rounded=0;" parent="1" edge="1">
          <mxGeometry width="50" height="50" relative="1" as="geometry">
            <mxPoint x="240" y="1030" as="sourcePoint" />
            <mxPoint x="600" y="1030" as="targetPoint" />
          </mxGeometry>
        </mxCell>
        <mxCell id="Wks_n7H0P1M0t23U8N3x-73" value="6a.1 modificaCompito(compito, porzioni?, quantità. tempo?, porzioni?)" style="edgeLabel;html=1;align=center;verticalAlign=middle;resizable=0;points=[];labelBackgroundColor=none;fontSize=10;" parent="Wks_n7H0P1M0t23U8N3x-72" connectable="0" vertex="1">
          <mxGeometry x="-0.2843" y="1" relative="1" as="geometry">
            <mxPoint x="57" y="-9" as="offset" />
          </mxGeometry>
        </mxCell>
        <mxCell id="Wks_n7H0P1M0t23U8N3x-74" value="" style="endArrow=classic;html=1;rounded=0;dashed=1;fillColor=#f8cecc;strokeColor=#f60c04;" parent="1" edge="1">
          <mxGeometry width="50" height="50" relative="1" as="geometry">
            <mxPoint x="600" y="1110" as="sourcePoint" />
            <mxPoint x="240" y="1110" as="targetPoint" />
          </mxGeometry>
        </mxCell>
        <mxCell id="Wks_n7H0P1M0t23U8N3x-75" value="(6-6a). 1a.1 cuoco non presente nel turno" style="edgeLabel;html=1;align=center;verticalAlign=middle;resizable=0;points=[];labelBackgroundColor=none;fontColor=#FF0808;" parent="Wks_n7H0P1M0t23U8N3x-74" connectable="0" vertex="1">
          <mxGeometry x="0.0241" y="-1" relative="1" as="geometry">
            <mxPoint y="-9" as="offset" />
          </mxGeometry>
        </mxCell>
        <mxCell id="Wks_n7H0P1M0t23U8N3x-76" value="" style="endArrow=classic;html=1;rounded=0;dashed=1;" parent="1" edge="1">
          <mxGeometry width="50" height="50" relative="1" as="geometry">
            <mxPoint x="600" y="1070" as="sourcePoint" />
            <mxPoint x="240" y="1070" as="targetPoint" />
          </mxGeometry>
        </mxCell>
        <mxCell id="Wks_n7H0P1M0t23U8N3x-77" value="compito aggiornato" style="edgeLabel;html=1;align=center;verticalAlign=middle;resizable=0;points=[];labelBackgroundColor=none;" parent="Wks_n7H0P1M0t23U8N3x-76" connectable="0" vertex="1">
          <mxGeometry x="0.0241" y="-1" relative="1" as="geometry">
            <mxPoint y="-9" as="offset" />
          </mxGeometry>
        </mxCell>
        <mxCell id="Wks_n7H0P1M0t23U8N3x-78" value="" style="endArrow=none;dashed=1;html=1;dashPattern=1 3;strokeWidth=2;rounded=0;exitX=-0.004;exitY=0.377;exitDx=0;exitDy=0;exitPerimeter=0;entryX=0.996;entryY=0.377;entryDx=0;entryDy=0;entryPerimeter=0;fillColor=#f8cecc;strokeColor=#f71f18;" parent="1" edge="1">
          <mxGeometry width="50" height="50" relative="1" as="geometry">
            <mxPoint x="180.00000000000037" y="1089.6000000000001" as="sourcePoint" />
            <mxPoint x="660.0000000000003" y="1089.6000000000001" as="targetPoint" />
          </mxGeometry>
        </mxCell>
        <mxCell id="Wks_n7H0P1M0t23U8N3x-79" value="" style="endArrow=none;dashed=1;html=1;dashPattern=1 3;strokeWidth=2;rounded=0;exitX=-0.004;exitY=0.377;exitDx=0;exitDy=0;exitPerimeter=0;entryX=0.996;entryY=0.377;entryDx=0;entryDy=0;entryPerimeter=0;fillColor=#f8cecc;strokeColor=#f71f18;" parent="1" edge="1">
          <mxGeometry width="50" height="50" relative="1" as="geometry">
            <mxPoint x="180.00000000000037" y="1130.0000000000002" as="sourcePoint" />
            <mxPoint x="660.0000000000003" y="1130.0000000000002" as="targetPoint" />
          </mxGeometry>
        </mxCell>
        <mxCell id="Wks_n7H0P1M0t23U8N3x-80" value="" style="endArrow=classic;html=1;rounded=0;dashed=1;fillColor=#f8cecc;strokeColor=#f60c04;" parent="1" edge="1">
          <mxGeometry width="50" height="50" relative="1" as="geometry">
            <mxPoint x="600" y="1150" as="sourcePoint" />
            <mxPoint x="240" y="1150" as="targetPoint" />
          </mxGeometry>
        </mxCell>
        <mxCell id="Wks_n7H0P1M0t23U8N3x-81" value="(6-6a). 1b.1 cuoco già occupato" style="edgeLabel;html=1;align=center;verticalAlign=middle;resizable=0;points=[];labelBackgroundColor=none;fontColor=#FF0808;" parent="Wks_n7H0P1M0t23U8N3x-80" connectable="0" vertex="1">
          <mxGeometry x="0.0241" y="-1" relative="1" as="geometry">
            <mxPoint y="-9" as="offset" />
          </mxGeometry>
        </mxCell>
        <mxCell id="Wks_n7H0P1M0t23U8N3x-82" value="" style="endArrow=none;dashed=1;html=1;dashPattern=1 3;strokeWidth=2;rounded=0;exitX=-0.004;exitY=0.377;exitDx=0;exitDy=0;exitPerimeter=0;entryX=0.996;entryY=0.377;entryDx=0;entryDy=0;entryPerimeter=0;fillColor=#f8cecc;strokeColor=#f71f18;" parent="1" edge="1">
          <mxGeometry width="50" height="50" relative="1" as="geometry">
            <mxPoint x="180.00000000000037" y="1170.0000000000002" as="sourcePoint" />
            <mxPoint x="660.0000000000003" y="1170.0000000000002" as="targetPoint" />
          </mxGeometry>
        </mxCell>
        <mxCell id="Wks_n7H0P1M0t23U8N3x-83" value="" style="endArrow=classic;html=1;rounded=0;dashed=1;fillColor=#f8cecc;strokeColor=#f60c04;" parent="1" edge="1">
          <mxGeometry width="50" height="50" relative="1" as="geometry">
            <mxPoint x="600" y="1190" as="sourcePoint" />
            <mxPoint x="240" y="1190" as="targetPoint" />
          </mxGeometry>
        </mxCell>
        <mxCell id="Wks_n7H0P1M0t23U8N3x-84" value="(6-6a). 1c.1 turno già passato" style="edgeLabel;html=1;align=center;verticalAlign=middle;resizable=0;points=[];labelBackgroundColor=none;fontColor=#FF0808;" parent="Wks_n7H0P1M0t23U8N3x-83" connectable="0" vertex="1">
          <mxGeometry x="0.0241" y="-1" relative="1" as="geometry">
            <mxPoint y="-9" as="offset" />
          </mxGeometry>
        </mxCell>
        <mxCell id="Wks_n7H0P1M0t23U8N3x-85" value="" style="endArrow=none;dashed=1;html=1;dashPattern=1 3;strokeWidth=2;rounded=0;" parent="1" edge="1">
          <mxGeometry width="50" height="50" relative="1" as="geometry">
            <mxPoint x="240" y="1010" as="sourcePoint" />
            <mxPoint x="600" y="1010" as="targetPoint" />
          </mxGeometry>
        </mxCell>
        <mxCell id="7QjkbwkYLUTSWp5Ibt6S-4" value="" style="endArrow=none;html=1;rounded=0;dashed=1;dashPattern=12 12;" parent="1" edge="1">
          <mxGeometry width="50" height="50" relative="1" as="geometry">
            <mxPoint x="240" y="1460" as="sourcePoint" />
            <mxPoint x="240" y="115" as="targetPoint" />
          </mxGeometry>
        </mxCell>
        <mxCell id="y0X7fDKTsWVKRcAgEhv--10" value="" style="endArrow=classic;html=1;rounded=0;" parent="1" edge="1">
          <mxGeometry width="50" height="50" relative="1" as="geometry">
            <mxPoint x="239" y="1437" as="sourcePoint" />
            <mxPoint x="599" y="1437" as="targetPoint" />
          </mxGeometry>
        </mxCell>
        <mxCell id="y0X7fDKTsWVKRcAgEhv--11" value="6e.1 verificaPreparazione(compito,cuoco?,turno?)" style="edgeLabel;html=1;align=center;verticalAlign=middle;resizable=0;points=[];labelBackgroundColor=none;fontSize=10;" parent="y0X7fDKTsWVKRcAgEhv--10" connectable="0" vertex="1">
          <mxGeometry x="-0.2843" y="1" relative="1" as="geometry">
            <mxPoint x="57" y="-9" as="offset" />
          </mxGeometry>
        </mxCell>
        <mxCell id="y0X7fDKTsWVKRcAgEhv--12" value="" style="endArrow=classic;html=1;rounded=0;dashed=1;" parent="1" edge="1">
          <mxGeometry width="50" height="50" relative="1" as="geometry">
            <mxPoint x="600" y="1391" as="sourcePoint" />
            <mxPoint x="240" y="1391" as="targetPoint" />
          </mxGeometry>
        </mxCell>
        <mxCell id="y0X7fDKTsWVKRcAgEhv--13" value="ottimizzato" style="edgeLabel;html=1;align=center;verticalAlign=middle;resizable=0;points=[];labelBackgroundColor=none;" parent="y0X7fDKTsWVKRcAgEhv--12" connectable="0" vertex="1">
          <mxGeometry x="0.0241" y="-1" relative="1" as="geometry">
            <mxPoint y="-9" as="offset" />
          </mxGeometry>
        </mxCell>
        <mxCell id="y0X7fDKTsWVKRcAgEhv--14" value="" style="endArrow=classic;html=1;rounded=0;" parent="1" edge="1">
          <mxGeometry width="50" height="50" relative="1" as="geometry">
            <mxPoint x="243" y="1370" as="sourcePoint" />
            <mxPoint x="603" y="1370" as="targetPoint" />
          </mxGeometry>
        </mxCell>
        <mxCell id="y0X7fDKTsWVKRcAgEhv--15" value="6d.1 ottimizzaPreparazione(compito,cuoco?,turno?)" style="edgeLabel;html=1;align=center;verticalAlign=middle;resizable=0;points=[];labelBackgroundColor=none;fontSize=10;" parent="y0X7fDKTsWVKRcAgEhv--14" connectable="0" vertex="1">
          <mxGeometry x="-0.2843" y="1" relative="1" as="geometry">
            <mxPoint x="57" y="-9" as="offset" />
          </mxGeometry>
        </mxCell>
        <mxCell id="y0X7fDKTsWVKRcAgEhv--19" value="OPT" style="shape=umlFrame;whiteSpace=wrap;html=1;pointerEvents=0;swimlaneFillColor=#DBF2C2;fillColor=#DBF2C2;strokeColor=#82b366;width=50;height=20;fontSize=10;fontStyle=1;opacity=80;" parent="1" vertex="1">
          <mxGeometry x="180" y="500" width="480" height="50" as="geometry" />
        </mxCell>
        <mxCell id="y0X7fDKTsWVKRcAgEhv--16" value="" style="endArrow=classic;html=1;rounded=0;dashed=1;" parent="1" edge="1">
          <mxGeometry width="50" height="50" relative="1" as="geometry">
            <mxPoint x="599" y="1462" as="sourcePoint" />
            <mxPoint x="239" y="1462" as="targetPoint" />
          </mxGeometry>
        </mxCell>
        <mxCell id="y0X7fDKTsWVKRcAgEhv--17" value="verifica" style="edgeLabel;html=1;align=center;verticalAlign=middle;resizable=0;points=[];labelBackgroundColor=none;" parent="y0X7fDKTsWVKRcAgEhv--16" connectable="0" vertex="1">
          <mxGeometry x="0.0241" y="-1" relative="1" as="geometry">
            <mxPoint y="-9" as="offset" />
          </mxGeometry>
        </mxCell>
        <mxCell id="7QjkbwkYLUTSWp5Ibt6S-33" value="" style="endArrow=classic;html=1;rounded=0;" parent="1" edge="1">
          <mxGeometry width="50" height="50" relative="1" as="geometry">
            <mxPoint x="240" y="519.52" as="sourcePoint" />
            <mxPoint x="600" y="519.52" as="targetPoint" />
          </mxGeometry>
        </mxCell>
        <mxCell id="7QjkbwkYLUTSWp5Ibt6S-34" value="3. aggiungiMansione(mansione)" style="edgeLabel;html=1;align=center;verticalAlign=middle;resizable=0;points=[];labelBackgroundColor=none;fontSize=10;" parent="7QjkbwkYLUTSWp5Ibt6S-33" connectable="0" vertex="1">
          <mxGeometry x="-0.2843" y="1" relative="1" as="geometry">
            <mxPoint x="57" y="-9" as="offset" />
          </mxGeometry>
        </mxCell>
        <mxCell id="7QjkbwkYLUTSWp5Ibt6S-35" value="" style="endArrow=classic;html=1;rounded=0;dashed=1;" parent="1" edge="1">
          <mxGeometry width="50" height="50" relative="1" as="geometry">
            <mxPoint x="600" y="539.52" as="sourcePoint" />
            <mxPoint x="240" y="539.52" as="targetPoint" />
          </mxGeometry>
        </mxCell>
        <mxCell id="7QjkbwkYLUTSWp5Ibt6S-36" value="mansione in cucina aggiunta" style="edgeLabel;html=1;align=center;verticalAlign=middle;resizable=0;points=[];labelBackgroundColor=none;fontSize=10;" parent="7QjkbwkYLUTSWp5Ibt6S-35" connectable="0" vertex="1">
          <mxGeometry x="0.0241" y="-1" relative="1" as="geometry">
            <mxPoint y="-9" as="offset" />
          </mxGeometry>
        </mxCell>
      </root>
    </mxGraphModel>
  </diagram>
</mxfile>
